<svg width="334" height="271" viewBox="0 0 334 271" fill="none" xmlns="http://www.w3.org/2000/svg">
<g filter="url(#filter0_d)">
<path d="M309.897 59.6622L277.83 24.0139C275.751 21.7031 273.163 19.9086 270.269 18.7728L229.842 2.90088C226.667 1.65436 223.226 1.24059 219.846 1.6989L168.643 8.6416C166.889 8.87948 165.111 8.88336 163.355 8.65315L110.333 1.69939C106.84 1.24127 103.287 1.71401 100.036 3.06978L62.402 18.7605C59.6551 19.9057 57.1985 21.6495 55.2112 23.8648L23.9455 58.7166C22.0052 60.8796 20.5594 63.4393 19.7088 66.2178L7.31375 106.708C6.44867 109.534 6.22064 112.517 6.64603 115.441L13.4858 162.465C13.8259 164.803 14.5777 167.063 15.7062 169.139L42.8508 219.07C44.6607 222.399 47.3792 225.146 50.6898 226.99L89.687 248.712C91.2223 249.567 92.8636 250.216 94.5686 250.642L133.611 260.403C135.198 260.799 136.827 261 138.462 261H191.783C193.256 261 194.726 260.837 196.163 260.514L240.048 250.663C242.005 250.223 243.885 249.492 245.624 248.494L282.427 227.366C286.051 225.285 288.932 222.122 290.666 218.32L318.904 156.404C319.631 154.808 320.146 153.124 320.434 151.393L328.008 105.95C328.655 102.069 328.143 98.0849 326.537 94.4942L313.284 64.8704C312.433 62.9685 311.29 61.2112 309.897 59.6622Z" fill="#DB6102"/>
<path d="M309.897 59.6622L277.83 24.0139C275.751 21.7031 273.163 19.9086 270.269 18.7728L229.842 2.90088C226.667 1.65436 223.226 1.24059 219.846 1.6989L168.643 8.6416C166.889 8.87948 165.111 8.88336 163.355 8.65315L110.333 1.69939C106.84 1.24127 103.287 1.71401 100.036 3.06978L62.402 18.7605C59.6551 19.9057 57.1985 21.6495 55.2112 23.8648L23.9455 58.7166C22.0052 60.8796 20.5594 63.4393 19.7088 66.2178L7.31375 106.708C6.44867 109.534 6.22064 112.517 6.64603 115.441L13.4858 162.465C13.8259 164.803 14.5777 167.063 15.7062 169.139L42.8508 219.07C44.6607 222.399 47.3792 225.146 50.6898 226.99L89.687 248.712C91.2223 249.567 92.8636 250.216 94.5686 250.642L133.611 260.403C135.198 260.799 136.827 261 138.462 261H191.783C193.256 261 194.726 260.837 196.163 260.514L240.048 250.663C242.005 250.223 243.885 249.492 245.624 248.494L282.427 227.366C286.051 225.285 288.932 222.122 290.666 218.32L318.904 156.404C319.631 154.808 320.146 153.124 320.434 151.393L328.008 105.95C328.655 102.069 328.143 98.0849 326.537 94.4942L313.284 64.8704C312.433 62.9685 311.29 61.2112 309.897 59.6622Z" stroke="#A94B02" stroke-width="3" stroke-linejoin="round"/>
</g>
<defs>
<filter id="filter0_d" x="0.937756" y="0.0175171" width="332.843" height="270.482" filterUnits="userSpaceOnUse" color-interpolation-filters="sRGB">
<feFlood flood-opacity="0" result="BackgroundImageFix"/>
<feColorMatrix in="SourceAlpha" type="matrix" values="0 0 0 0 0 0 0 0 0 0 0 0 0 0 0 0 0 0 127 0"/>
<feOffset dy="4"/>
<feGaussianBlur stdDeviation="2"/>
<feColorMatrix type="matrix" values="0 0 0 0 0 0 0 0 0 0 0 0 0 0 0 0 0 0 0.25 0"/>
<feBlend mode="normal" in2="BackgroundImageFix" result="effect1_dropShadow"/>
<feBlend mode="normal" in="SourceGraphic" in2="effect1_dropShadow" result="shape"/>
</filter>
</defs>
</svg>
