<svg width="104" height="66" viewBox="0 0 104 66" fill="none" xmlns="http://www.w3.org/2000/svg">
<g filter="url(#filter0_d)">
<path d="M13.432 3.34663L55.5945 22.288L98.706 19.4476L83.6335 35.6983L69.9199 46.4763L54.1379 49.2255L41.486 46.8367L33.9884 39.6919L26.6063 30.6597L23.4104 24.3273L13.432 3.34663Z" fill="#F0C11B"/>
<path d="M13.432 3.34663L55.5945 22.288L98.706 19.4476L83.6335 35.6983L69.9199 46.4763L54.1379 49.2255L41.486 46.8367L33.9884 39.6919L26.6063 30.6597L23.4104 24.3273L13.432 3.34663Z" fill="url(#paint0_linear)"/>
<path d="M13.432 3.34663L55.5945 22.288L98.706 19.4476L83.6335 35.6983L69.9199 46.4763L54.1379 49.2255L41.486 46.8367L33.9884 39.6919L26.6063 30.6597L23.4104 24.3273L13.432 3.34663Z" stroke="#E56400"/>
</g>
<defs>
<filter id="filter0_d" x="0.705627" y="0.956421" width="103.222" height="64.7527" filterUnits="userSpaceOnUse" color-interpolation-filters="sRGB">
<feFlood flood-opacity="0" result="BackgroundImageFix"/>
<feColorMatrix in="SourceAlpha" type="matrix" values="0 0 0 0 0 0 0 0 0 0 0 0 0 0 0 0 0 0 127 0"/>
<feOffset dy="4"/>
<feGaussianBlur stdDeviation="2"/>
<feColorMatrix type="matrix" values="0 0 0 0 0 0 0 0 0 0 0 0 0 0 0 0 0 0 0.25 0"/>
<feBlend mode="normal" in2="BackgroundImageFix" result="effect1_dropShadow"/>
<feBlend mode="normal" in="SourceGraphic" in2="effect1_dropShadow" result="shape"/>
</filter>
<linearGradient id="paint0_linear" x1="56.2072" y1="10.7238" x2="48.4987" y2="48.2762" gradientUnits="userSpaceOnUse">
<stop stop-color="#AD1212"/>
<stop offset="1" stop-color="#F0C11B"/>
</linearGradient>
</defs>
</svg>
